<?xml version="1.0" encoding="UTF-8"?><svg id="Layer_2" xmlns="http://www.w3.org/2000/svg" viewBox="0 0 201.31 217.82"><defs><style>.cls-1{fill:#cfbed2;}</style></defs><g id="Layer_1-2"><g><path class="cls-1" d="m131.4,99.22c0-9.46-7.13-18.36-23.33-19.4,2.08-2,4.73-3.45,8.18-4.17v-.56c-3.85.72-6.89,2.32-9.46,4.65-.72-.08-1.36-.08-2.08-.08-16.35,0-34.87,14.03-34.87,33.43,0,12.51,9.78,18.28,16.51,23.57-3.21,5.53-8.02,10.18-15.63,13.87-5.05-1.52-9.7-3.45-14.59-3.45s-5.93,1.52-5.93,3.05c0,1.92,2.81,4.01,8.34,4.01,3.85,0,7.54-.8,10.34-1.84,3.93,1.12,8.02,1.84,11.86,1.84,8.5,0,15.63-3.93,15.63-11.78,0-4.17-2.32-7.3-5.45-10.18,3.21-6.81,4.81-14.35,6.41-22.29,2.16-10.74,3.69-20.76,8.26-27.26,10.1,1.28,18.76,8.02,18.76,20.6,0,6.57-2.16,10.74-5.21,13.31-2.65-1.52-6.01-2.49-9.86-2.49-2.81,0-8.42,1.28-8.42,4.17,0,2.08,3.05,3.29,6.65,3.29,2.24,0,4.65-.48,6.97-1.36,3.21,3.29,4.89,8.26,4.89,13.31,0,8.9-4.25,18.28-14.27,18.28-2,0-3.05-.88-3.05-1.52,2-.4,2.89-1.68,2.89-3.05,0-1.6-1.28-3.29-3.53-3.29-2.4,0-3.85,2.08-3.85,4.25,0,3.93,4.65,5.29,7.7,5.29,8.58,0,21.32-10.42,21.32-24.13,0-4.81-2.24-9.22-6.41-12.1,6.33-4.25,11.22-11.22,11.22-17.96Zm-38.72,45.45c0,4.17-3.21,7.62-11.22,7.62-3.45,0-6.65-.64-9.62-1.44,7.46-3.61,12.43-8.1,15.87-13.15,2.89,2.32,4.97,4.41,4.97,6.97Zm1.44-34.23c-1.44,7.37-2.57,14.19-4.89,20.2-6.33-5.37-14.59-10.58-14.59-21.81,0-17.48,13.55-26.45,27.34-26.45h.56l1.04.08h.56c-5.45,6.89-8.02,17.4-10.02,27.98Zm15.39,9.3c-3.37,0-6.17-1.12-6.17-2.32,0-.48.64-.88,2.4-.88,3.05,0,5.61,1.04,7.7,2.72-1.36.32-2.65.48-3.93.48Z"/><path class="cls-1" d="m113.09,17.28c-.15-.03-.32-.06-.47-.09-7.09-1.7-10.96-6.9-11.71-15.8-.03-.45-.06-.92-.08-1.39h-.33c-.03.47-.06.95-.11,1.39-.75,8.99-4.67,14.08-11.93,15.8h-.03c-.3.07-.63.13-.95.19C38.18,23.85,0,66.13,0,117.16c0,55.5,45.16,100.66,100.66,100.66s100.66-45.16,100.66-100.66c0-51.29-38.57-93.75-88.23-99.88Zm-12.43,199.58C45.68,216.86.95,172.14.95,117.16.95,66.74,38.56,24.96,87.2,18.38c1.13.2,2.2.46,3.19.82,4.98,1.75,8.1,5.45,9.4,11.29.36,1.61.61,3.37.7,5.31h.33c.08-1.95.31-3.7.7-5.31,1.28-5.81,4.37-9.57,9.26-11.29,1-.37,2.08-.64,3.23-.83,48.67,6.55,86.34,48.35,86.34,98.8,0,54.98-44.74,99.7-99.7,99.7Z"/></g></g></svg>