<?xml version="1.0" encoding="UTF-8"?><svg id="Layer_2" xmlns="http://www.w3.org/2000/svg" viewBox="0 0 121.97 68.68"><defs><style>.cls-1{fill:#605444;}</style></defs><g id="Layer_1-2"><g><g><path class="cls-1" d="m47.37,3.97c.63,0,1.18,0,1.81.07,2.23-2.02,4.88-3.41,8.22-4.04v.49c-2.99.63-5.29,1.88-7.1,3.62,14.07.9,20.27,8.64,20.27,16.86,0,5.85-4.25,11.91-9.75,15.6,3.62,2.51,5.57,6.34,5.57,10.52,0,11.91-11.08,20.97-18.53,20.97-2.65,0-6.69-1.18-6.69-4.6,0-1.88,1.25-3.69,3.34-3.69,1.95,0,3.06,1.46,3.06,2.86,0,1.18-.77,2.3-2.51,2.65,0,.56.91,1.32,2.65,1.32,8.71,0,12.4-8.15,12.4-15.88,0-4.39-1.46-8.71-4.25-11.56-2.02.77-4.11,1.18-6.06,1.18-3.13,0-5.78-1.05-5.78-2.86,0-2.51,4.88-3.62,7.31-3.62,3.34,0,6.27.84,8.57,2.16,2.65-2.23,4.53-5.85,4.53-11.56,0-10.94-7.52-16.79-16.3-17.9-3.97,5.64-5.29,14.35-7.17,23.68-1.39,6.9-2.79,13.44-5.57,19.36,2.72,2.51,4.74,5.22,4.74,8.85,0,6.83-6.2,10.24-13.58,10.24-3.34,0-6.9-.63-10.31-1.6-2.44.91-5.64,1.6-8.99,1.6-4.81,0-7.24-1.81-7.24-3.48,0-1.32,1.04-2.65,5.15-2.65s8.29,1.67,12.68,2.99c6.62-3.2,10.8-7.24,13.58-12.05-5.85-4.6-14.35-9.61-14.35-20.48,0-16.86,16.09-29.05,30.3-29.05Zm-28.56,61.85c2.58.7,5.36,1.25,8.36,1.25,6.97,0,9.75-2.99,9.75-6.62,0-2.23-1.81-4.04-4.32-6.06-2.99,4.39-7.31,8.29-13.79,11.42ZM46.88,6.41h-.49l-.91-.07h-.49c-11.98,0-23.75,7.8-23.75,22.99,0,9.75,7.17,14.28,12.68,18.95,2.02-5.22,2.99-11.15,4.25-17.55,1.74-9.19,3.97-18.32,8.71-24.31Zm8.08,31.97c-1.81-1.46-4.04-2.37-6.69-2.37-1.53,0-2.09.35-2.09.77,0,1.04,2.44,2.02,5.36,2.02,1.11,0,2.23-.14,3.41-.42Z"/><path class="cls-1" d="m90.98,67.43c-10.11,0-19.32-6.99-19.32-23.68,0-19.9,18.01-37.41,35.68-37.41,4.44,0,6.91.9,14.63,3.78-1.48,1.73-2.22,2.71-3.54,6.74h-.25c-1.64-4.28-8.3-6.91-15.7-6.91-15.7,0-24.5,14.88-24.5,32.06,0,14.47,7.15,19.9,16.44,19.9s15.46-4.52,21.71-12.99l.33.41c-6.74,11.51-16.2,18.09-25.49,18.09Z"/></g><path class="cls-1" d="m98.34,43.12c-.2-4.47-2.24-6.71-6.16-7.04v-.14c3.93-.34,5.96-2.57,6.16-7.04h.14c.2,4.47,2.24,6.77,6.16,7.04v.14c-3.93.27-5.96,2.57-6.16,7.04h-.14Z"/></g></g></svg>
