<?xml version="1.0" encoding="UTF-8"?><svg id="Layer_2" xmlns="http://www.w3.org/2000/svg" viewBox="0 0 16.03 16.02"><defs><style>.cls-1{fill:#232324;}</style></defs><g id="Layer_1-2"><path id="Path_81" class="cls-1" d="m15.97,11.32c.12,2.45-1.76,4.53-4.21,4.65-.15,0-.3,0-.45,0-1.11.06-2.2.05-3.31.05s-2.2.01-3.31-.05c-2.45.12-4.53-1.76-4.65-4.21,0-.15,0-.3,0-.45C-.01,10.21,0,9.12,0,8.01s-.01-2.2.05-3.31C-.07,2.26,1.81.18,4.26.05c.15,0,.3,0,.45,0C5.81-.01,6.91,0,8.01,0s2.2-.01,3.31.05c2.45-.12,4.53,1.76,4.65,4.21,0,.15,0,.3,0,.45.06,1.1.05,2.2.05,3.31s0,2.2-.05,3.31M3.29,1.76c-.7.28-1.25.83-1.52,1.52-.42,1.05-.32,3.56-.32,4.73s-.09,3.67.32,4.73c.28.69.83,1.25,1.52,1.52,1.05.42,3.56.32,4.73.32s3.67.09,4.73-.32c.69-.28,1.25-.83,1.52-1.52.42-1.05.32-3.56.32-4.73s.09-3.67-.32-4.73c-.28-.7-.83-1.25-1.52-1.52-1.05-.42-3.56-.32-4.73-.32s-3.67-.09-4.72.32m4.72,10.36c-2.27,0-4.11-1.84-4.11-4.11s1.84-4.11,4.11-4.11c2.27,0,4.11,1.84,4.11,4.11,0,2.26-1.83,4.1-4.09,4.11,0,0-.01,0-.02,0m0-6.78c-1.48,0-2.67,1.19-2.67,2.67,0,1.48,1.19,2.67,2.67,2.67,1.48,0,2.67-1.19,2.67-2.67h0c0-1.48-1.2-2.67-2.67-2.67m4.28-.65c-.53,0-.96-.43-.96-.96s.43-.96.96-.96c.53,0,.96.43.96.96,0,.53-.43.96-.95.96,0,0,0,0,0,0"/></g></svg>
